<?xml version="1.0" encoding="UTF-8"?>
<svg version="1.1" xmlns="http://www.w3.org/2000/svg" width="512" height="512">
<path d="M0 0 C0.98584076 0.00054382 1.97168152 0.00108765 2.98739624 0.00164795 C71.33903275 0.17436998 133.81682285 27.84778724 182.55078125 75.375 C185.56672054 79.06034825 186.47771022 82.60935633 186.5 87.3125 C186.51675781 88.12589844 186.53351563 88.93929687 186.55078125 89.77734375 C185.57538255 96.75196886 180.92865025 101.06990041 176.16503906 105.80151367 C175.45408081 106.51933517 174.74312256 107.23715668 174.01062012 107.97673035 C171.66574041 110.3398638 169.30998995 112.69179284 166.953125 115.04296875 C165.31471703 116.68593903 163.67668124 118.32928054 162.03900146 119.97297668 C158.60751494 123.41339146 155.17041369 126.84807529 151.72949219 130.27905273 C147.32491685 134.67213664 142.93639714 139.08087492 138.55218887 143.49427319 C135.17399825 146.89082605 131.78652818 150.27800331 128.39629364 153.6625309 C126.77453869 155.28413266 125.15587848 156.90883569 123.5404129 158.53670311 C121.27893277 160.81309134 119.0050313 163.0763167 116.72753906 165.33666992 C116.06546448 166.00841248 115.40338989 166.68015503 114.72125244 167.37225342 C110.2738386 171.75001593 106.25239433 174.64631947 99.96484375 175.7734375 C92.9654142 175.68427279 88.60709074 173.08484947 83.6875 168.3125 C58.50520258 145.15679582 26.89565558 134.24189284 -7.19628906 135.23876953 C-37.81448921 136.8331103 -68.47879331 151.376409 -89.1875 173.9375 C-111.23097635 200.08907877 -122.63870789 230.98469093 -120.8125 265.375 C-118.28056707 294.04758271 -106.71834673 319.60708904 -86.8125 340.375 C-85.9875 341.24125 -85.1625 342.1075 -84.3125 343 C-83.4875 343.78375 -82.6625 344.5675 -81.8125 345.375 C-80.95205078 346.22771484 -80.95205078 346.22771484 -80.07421875 347.09765625 C-57.35359187 368.62020864 -25.85769804 377.97786872 4.8828125 377.58984375 C35.85800503 376.68410347 65.09798189 362.77513739 87.1875 341.375 C91.41644791 336.73316664 95.17095891 331.81349575 98.8125 326.70605469 C99.25851562 326.08075867 99.70453125 325.45546265 100.1640625 324.81121826 C100.50179688 324.33726624 100.83953125 323.86331421 101.1875 323.375 C100.07329681 323.38388245 98.95909363 323.39276489 97.81112671 323.4019165 C87.30572551 323.4830382 76.80038795 323.54298271 66.29474449 323.58224869 C60.89379182 323.60311448 55.4930922 323.63141407 50.09228516 323.67675781 C44.87921286 323.72025098 39.66638382 323.74414469 34.45314407 323.75450897 C32.46522823 323.76189407 30.47732555 323.77631549 28.4895134 323.79792023 C25.70284102 323.82700018 22.91717103 323.83095406 20.13037109 323.82910156 C19.31037628 323.84348267 18.49038147 323.85786377 17.64553833 323.87268066 C12.35337088 323.83466762 9.40064872 322.85501858 5.1875 319.375 C1.72318806 315.44253779 0.06761142 313.13421029 0.04032898 307.9229126 C0.02959602 306.51821716 0.02959602 306.51821716 0.01864624 305.08514404 C0.01595734 304.05447815 0.01326843 303.02381226 0.01049805 301.96191406 C0.00392685 300.87885986 -0.00264435 299.79580566 -0.00941467 298.67993164 C-0.02918055 295.08349545 -0.04081769 291.48710108 -0.05078125 287.890625 C-0.05485678 286.66430107 -0.0589323 285.43797714 -0.06313133 284.17449188 C-0.08185207 278.35351897 -0.0964144 272.53256256 -0.1047433 266.71156526 C-0.11353948 260.66403863 -0.13282609 254.61676302 -0.16918945 248.56933594 C-0.2075728 242.08310866 -0.22642569 235.59710794 -0.23094749 229.11077118 C-0.23582376 226.63722241 -0.24746711 224.16367743 -0.26598549 221.69019318 C-0.29029155 218.22841531 -0.289427 214.76750085 -0.2824707 211.30566406 C-0.30168579 209.77181061 -0.30168579 209.77181061 -0.32128906 208.20697021 C-0.27771444 202.25958687 0.24976651 198.91533206 4.1875 194.375 C9.6062202 189.60136554 12.97735402 189.22757854 20.043396 189.23455811 C20.97192139 189.23158698 21.90044678 189.22861586 22.85710931 189.2255547 C25.98775633 189.21684019 29.11836523 189.21535713 32.24902344 189.21386719 C34.48586103 189.20924093 36.72269782 189.20421653 38.95953369 189.19882202 C45.05053266 189.18567679 51.1415206 189.17924884 57.23253155 189.17481136 C61.03539619 189.17188384 64.83825779 189.16777963 68.64112091 189.16330719 C79.16855078 189.15119478 89.69597885 189.14081412 100.22341537 189.1374321 C100.89745113 189.13721253 101.57148688 189.13699297 102.26594795 189.13676675 C102.94160714 189.13654847 103.61726632 189.13633019 104.31340003 189.1361053 C105.68256617 189.13566183 107.0517323 189.13521527 108.42089844 189.13476562 C109.10005374 189.1345442 109.77920904 189.13432277 110.47894481 189.13409463 C121.48082292 189.13014762 132.48263475 189.1126975 143.48448727 189.0894061 C154.77792458 189.06569032 166.07132979 189.05348808 177.36479592 189.05206418 C183.70642937 189.05101475 190.04796941 189.04507765 196.38957977 189.02724457 C202.3550735 189.01079624 208.32040328 189.00859269 214.28591156 189.01738358 C216.4764754 189.01815571 218.66704794 189.01378816 220.85758972 189.00392532 C223.84647944 188.99125647 226.83478409 188.9970553 229.82366943 189.00750732 C230.69196436 188.99945092 231.56025928 188.99139452 232.45486617 188.98309398 C238.96371059 189.03638113 243.1130685 190.38046815 247.92578125 195.0078125 C250.7981664 198.74042016 251.56091116 202.68810123 252.375 207.25 C252.52646484 207.99507812 252.67792969 208.74015625 252.83398438 209.5078125 C253.34279913 212.12333688 253.77428448 214.74262332 254.1875 217.375 C254.45675293 219.06580688 254.45675293 219.06580688 254.73144531 220.79077148 C256.39179813 232.41695401 256.58621637 243.95639927 256.5625 255.6875 C256.56168427 257.20843765 256.56168427 257.20843765 256.56085205 258.76010132 C256.52095968 274.96932821 255.60433573 290.48141944 252.1875 306.375 C251.96787598 307.43364258 251.74825195 308.49228516 251.52197266 309.58300781 C242.72144078 351.27498259 224.06963183 390.05238051 196.1875 422.375 C195.55328125 423.12007813 194.9190625 423.86515625 194.265625 424.6328125 C182.45448485 438.13779833 169.70389772 450.80918743 155.1875 461.375 C154.03755169 462.23149066 152.88781411 463.08826433 151.73828125 463.9453125 C143.54833859 469.98411751 135.02865311 475.34496684 126.1875 480.375 C125.58856934 480.71772949 124.98963867 481.06045898 124.37255859 481.41357422 C99.8674554 495.31288472 72.84025651 504.3383525 45.1875 509.375 C44.35186523 509.53871094 43.51623047 509.70242188 42.65527344 509.87109375 C14.93418188 515.1637992 -17.15059037 514.77440744 -44.8125 509.375 C-45.70952637 509.21402832 -46.60655273 509.05305664 -47.53076172 508.88720703 C-77.38276857 503.48551415 -107.13024249 492.66440551 -132.8125 476.375 C-133.50504883 475.93575195 -134.19759766 475.49650391 -134.91113281 475.04394531 C-150.41312319 465.1191773 -164.5762655 454.16063928 -177.8125 441.375 C-178.74376709 440.476604 -178.74376709 440.476604 -179.69384766 439.56005859 C-187.59500259 431.89623497 -195.14016955 424.15501606 -201.8125 415.375 C-202.22918945 414.83472168 -202.64587891 414.29444336 -203.07519531 413.73779297 C-210.7584873 403.7427884 -217.50092968 393.28290964 -223.8125 382.375 C-224.20679199 381.69775879 -224.60108398 381.02051758 -225.00732422 380.32275391 C-239.94737689 354.34808664 -249.34179683 324.937012 -253.8125 295.375 C-254.07740234 293.69132324 -254.07740234 293.69132324 -254.34765625 291.97363281 C-256.0045586 280.36052257 -256.21123513 268.84320055 -256.1875 257.125 C-256.18695618 256.11298523 -256.18641235 255.10097046 -256.18585205 254.05828857 C-256.1451051 237.52382605 -255.22136907 221.60435136 -251.8125 205.375 C-251.60351074 204.35970215 -251.39452148 203.3444043 -251.17919922 202.29833984 C-238.97737985 144.87209932 -205.80940964 90.09007262 -158.8125 54.375 C-158.27222168 53.95831055 -157.73194336 53.54162109 -157.17529297 53.11230469 C-147.1802884 45.4290127 -136.72040964 38.68657032 -125.8125 32.375 C-125.13525879 31.98070801 -124.45801758 31.58641602 -123.76025391 31.18017578 C-97.8418797 16.27250163 -68.34869833 6.71204891 -38.8125 2.375 C-37.61004639 2.19839844 -36.40759277 2.02179687 -35.16870117 1.83984375 C-23.45224155 0.2358565 -11.81347836 -0.02463344 0 0 Z M-165.06689453 107.46386719 C-171.59524363 114.61126813 -177.21861124 122.49179734 -182.8125 130.375 C-179.57983025 133.0658148 -176.38472803 135.31384808 -172.69921875 137.3359375 C-171.2145813 138.15735229 -171.2145813 138.15735229 -169.69995117 138.99536133 C-168.64396729 139.57439209 -167.5879834 140.15342285 -166.5 140.75 C-156.37788605 146.34652971 -146.36352162 152.09220539 -136.43041992 158.01904297 C-135.48787354 158.5760791 -134.54532715 159.13311523 -133.57421875 159.70703125 C-132.74881592 160.19921143 -131.92341309 160.6913916 -131.07299805 161.19848633 C-128.96322087 162.29655482 -127.1363341 162.92009773 -124.8125 163.375 C-124.33941406 162.76914063 -123.86632812 162.16328125 -123.37890625 161.5390625 C-115.31525813 151.32196449 -107.1738644 142.3119783 -96.8125 134.375 C-95.94882813 133.70726562 -95.08515625 133.03953125 -94.1953125 132.3515625 C-76.00133854 118.69258502 -56.01077818 109.40433547 -33.8125 104.375 C-32.75603271 104.12943359 -32.75603271 104.12943359 -31.67822266 103.87890625 C6.45555295 95.40667885 48.75158887 102.78006743 81.75 123.5 C87.28484732 127.03895657 92.72190063 130.73126709 98.1875 134.375 C113.3675 119.195 128.5475 104.015 144.1875 88.375 C107.1429437 51.3304437 51.50552317 34.1694981 0.125 34 C-63.50286188 34.17093969 -121.54408265 61.63187299 -165.06689453 107.46386719 Z M-200.8125 161.375 C-219.56431917 203.87595056 -227.33096329 249.31157743 -218.8125 295.375 C-218.64621094 296.27831055 -218.47992188 297.18162109 -218.30859375 298.11230469 C-214.76702278 316.61373379 -208.82674175 334.3385778 -200.8125 351.375 C-196.46690192 350.42908831 -192.90185424 348.36082307 -189.0625 346.1875 C-188.28825684 345.75332764 -187.51401367 345.31915527 -186.71630859 344.87182617 C-176.99981335 339.39617426 -167.38220556 333.74764846 -157.76269531 328.10400391 C-152.78404802 325.18619688 -147.79814825 322.28082341 -142.8125 319.375 C-143.0391333 318.726521 -143.2657666 318.07804199 -143.49926758 317.40991211 C-151.94483276 293.09365958 -151.94483276 293.09365958 -153.8125 280.375 C-153.99425781 279.23675781 -154.17601562 278.09851563 -154.36328125 276.92578125 C-157.82958286 248.13039956 -153.13294764 220.25116573 -142.8125 193.375 C-143.46395996 192.99915771 -144.11541992 192.62331543 -144.78662109 192.23608398 C-145.71039551 191.70313721 -146.63416992 191.17019043 -147.5859375 190.62109375 C-148.6267749 190.02063232 -149.6676123 189.4201709 -150.73999023 188.80151367 C-153.05728612 187.46456802 -155.37451776 186.12751172 -157.69165039 184.7902832 C-163.25809085 181.57807225 -168.82507986 178.36683414 -174.39526367 175.16111755 C-176.19484151 174.12538357 -177.99418463 173.08924301 -179.79345703 172.05297852 C-182.06870533 170.74275819 -184.34440965 169.43332939 -186.62060547 168.12475586 C-187.6520166 167.53057861 -188.68342773 166.93640137 -189.74609375 166.32421875 C-190.65415771 165.80174561 -191.56222168 165.27927246 -192.49780273 164.7409668 C-194.30376201 163.67522034 -196.06771129 162.53819248 -197.8125 161.375 C-198.8025 161.375 -199.7925 161.375 -200.8125 161.375 Z M34.1875 223.375 C34.1875 245.155 34.1875 266.935 34.1875 289.375 C41.39722656 289.40078125 48.60695313 289.4265625 56.03515625 289.453125 C60.60615524 289.47829528 65.17708819 289.50462966 69.74804688 289.53515625 C77.00122316 289.58348486 84.25424656 289.62753203 91.50756836 289.64599609 C97.35623061 289.6611543 103.20449259 289.69558578 109.05297661 289.74330902 C111.28281612 289.7581313 113.51271278 289.7660415 115.74260139 289.76688385 C118.86927959 289.76925261 121.9948508 289.79632645 125.12133789 289.82910156 C126.04059555 289.8240712 126.95985321 289.81904083 127.90696716 289.81385803 C133.82994663 289.90973922 137.31541895 290.95748794 142.1875 294.375 C143.74609375 296.234375 143.74609375 296.234375 144.625 298.125 C144.93308594 298.73859375 145.24117188 299.3521875 145.55859375 299.984375 C147.33448208 306.73495673 146.01288053 312.11885186 143.3125 318.3125 C142.84602051 319.40558472 142.84602051 319.40558472 142.37011719 320.52075195 C136.23389216 334.44675632 128.01685409 346.80622169 118.1875 358.375 C117.3521875 359.36371094 116.516875 360.35242188 115.65625 361.37109375 C108.93027459 369.04423975 101.35212904 375.29899699 93.1875 381.375 C94.81584428 387.5564853 98.12959238 392.68624803 101.375 398.125 C102.63493611 400.2573273 103.89401901 402.39015891 105.15234375 404.5234375 C105.80960449 405.63557617 106.46686523 406.74771484 107.14404297 407.89355469 C109.24889434 411.46857547 111.317294 415.06397629 113.37890625 418.6640625 C113.7200798 419.25920654 114.06125336 419.85435059 114.4127655 420.4675293 C116.07426822 423.36680578 117.73264568 426.26778906 119.38745117 429.17089844 C119.98662354 430.21536133 120.5857959 431.25982422 121.203125 432.3359375 C121.99638184 433.72498291 121.99638184 433.72498291 122.80566406 435.14208984 C124.12610315 437.46638887 124.12610315 437.46638887 126.1875 439.375 C136.05757887 432.1978995 145.4143759 424.88015721 154.1875 416.375 C154.74679199 415.84148926 155.30608398 415.30797852 155.88232422 414.75830078 C164.47626581 406.54367799 172.23260435 398.02259322 179.1875 388.375 C179.66396973 387.71580566 180.14043945 387.05661133 180.63134766 386.37744141 C192.48812337 369.76232869 202.31407659 351.61180161 209.1875 332.375 C209.80818359 330.74304688 209.80818359 330.74304688 210.44140625 329.078125 C218.93690079 305.53575141 222.30273086 281.18605481 222.4375 256.3125 C222.44700684 254.99870361 222.45651367 253.68490723 222.46630859 252.33129883 C222.43302689 242.41273434 221.36369139 233.37262681 220.1875 223.375 C158.8075 223.375 97.4275 223.375 34.1875 223.375 Z M-131.87890625 352.0859375 C-132.91362061 352.66649902 -133.94833496 353.24706055 -135.0144043 353.84521484 C-136.12340088 354.47379395 -137.23239746 355.10237305 -138.375 355.75 C-140.07233276 356.70640381 -140.07233276 356.70640381 -141.80395508 357.68212891 C-149.57803374 362.07509333 -157.2980546 366.55193225 -164.9765625 371.109375 C-170.87750783 374.60824581 -176.84583929 377.98979472 -182.8125 381.375 C-180.13231225 386.35249154 -177.21668136 390.56569335 -173.5 394.8125 C-173.00927002 395.38105713 -172.51854004 395.94961426 -172.01293945 396.53540039 C-171.0435529 397.65716704 -170.07187912 398.77696224 -169.09765625 399.89453125 C-168.06341485 401.08595219 -167.04476298 402.29089679 -166.03125 403.5 C-156.19166206 415.1468592 -145.1009245 425.38243039 -132.8125 434.375 C-131.76578125 435.14328125 -130.7190625 435.9115625 -129.640625 436.703125 C-100.48896554 457.44286282 -68.0728358 470.36728884 -32.8125 476.375 C-32.09610352 476.50487305 -31.37970703 476.63474609 -30.64160156 476.76855469 C-8.14285661 480.73500009 16.83862886 479.50795469 39.1875 475.375 C40.54246582 475.12556641 40.54246582 475.12556641 41.92480469 474.87109375 C60.42623379 471.32952278 78.1510778 465.38924175 95.1875 457.375 C94.24158831 453.02940192 92.17332307 449.46435424 90 445.625 C89.56582764 444.85075684 89.13165527 444.07651367 88.68432617 443.27880859 C83.20867426 433.56231335 77.56014846 423.94470556 71.91650391 414.32519531 C68.99869688 409.34654802 66.09332341 404.36064825 63.1875 399.375 C62.58091553 399.59639648 61.97433105 399.81779297 61.34936523 400.04589844 C30.8952682 411.02456757 -1.84379445 416.22614935 -33.8125 408.375 C-34.52937988 408.20871094 -35.24625977 408.04242188 -35.98486328 407.87109375 C-70.40719588 399.75935052 -104.9227788 379.2095818 -124.8125 349.375 C-127.69261205 349.375 -129.37337559 350.67525874 -131.87890625 352.0859375 Z " fill="#3099FE" transform="translate(255.8125,-0.375)"/>
<path d="M0 0 C0.98584076 0.00054382 1.97168152 0.00108765 2.98739624 0.00164795 C71.33903275 0.17436998 133.81682285 27.84778724 182.55078125 75.375 C185.56672054 79.06034825 186.47771022 82.60935633 186.5 87.3125 C186.51675781 88.12589844 186.53351563 88.93929687 186.55078125 89.77734375 C185.57538255 96.75196886 180.92865025 101.06990041 176.16503906 105.80151367 C175.45408081 106.51933517 174.74312256 107.23715668 174.01062012 107.97673035 C171.66574041 110.3398638 169.30998995 112.69179284 166.953125 115.04296875 C165.31471703 116.68593903 163.67668124 118.32928054 162.03900146 119.97297668 C158.60751494 123.41339146 155.17041369 126.84807529 151.72949219 130.27905273 C147.32491685 134.67213664 142.93639714 139.08087492 138.55218887 143.49427319 C135.17399825 146.89082605 131.78652818 150.27800331 128.39629364 153.6625309 C126.77453869 155.28413266 125.15587848 156.90883569 123.5404129 158.53670311 C121.27893277 160.81309134 119.0050313 163.0763167 116.72753906 165.33666992 C116.06546448 166.00841248 115.40338989 166.68015503 114.72125244 167.37225342 C110.2738386 171.75001593 106.25239433 174.64631947 99.96484375 175.7734375 C92.9654142 175.68427279 88.60709074 173.08484947 83.6875 168.3125 C58.50520258 145.15679582 26.89565558 134.24189284 -7.19628906 135.23876953 C-37.81448921 136.8331103 -68.47879331 151.376409 -89.1875 173.9375 C-111.23097635 200.08907877 -122.63870789 230.98469093 -120.8125 265.375 C-119.35742684 281.85280841 -114.86745377 296.9468437 -107.49145508 311.70556641 C-104.44297284 317.83504802 -103.07501616 323.43718908 -103.8125 330.375 C-107.23889513 340.08311954 -117.45841602 344.40617407 -125.8125 349.375 C-126.41932617 349.7369043 -127.02615234 350.09880859 -127.65136719 350.47167969 C-141.28525167 358.58657911 -155.05912472 366.46518407 -168.8125 374.375 C-169.97749023 375.04571533 -169.97749023 375.04571533 -171.16601562 375.72998047 C-178.6603453 380.04299234 -186.15524263 384.3561289 -193.8125 388.375 C-194.58078125 388.79007812 -195.3490625 389.20515625 -196.140625 389.6328125 C-201.71000362 392.41750181 -206.62816014 393.50000147 -212.8125 392.375 C-220.14447799 388.98985554 -223.83511957 384.1786226 -227.25 377.0625 C-227.70536133 376.15024658 -228.16072266 375.23799316 -228.62988281 374.2980957 C-240.84389689 349.30241555 -249.6488023 322.90697357 -253.8125 295.375 C-254.07740234 293.69132324 -254.07740234 293.69132324 -254.34765625 291.97363281 C-256.0045586 280.36052257 -256.21123513 268.84320055 -256.1875 257.125 C-256.18695618 256.11298523 -256.18641235 255.10097046 -256.18585205 254.05828857 C-256.1451051 237.52382605 -255.22136907 221.60435136 -251.8125 205.375 C-251.60351074 204.35970215 -251.39452148 203.3444043 -251.17919922 202.29833984 C-238.97737985 144.87209932 -205.80940964 90.09007262 -158.8125 54.375 C-158.27222168 53.95831055 -157.73194336 53.54162109 -157.17529297 53.11230469 C-147.1802884 45.4290127 -136.72040964 38.68657032 -125.8125 32.375 C-125.13525879 31.98070801 -124.45801758 31.58641602 -123.76025391 31.18017578 C-97.8418797 16.27250163 -68.34869833 6.71204891 -38.8125 2.375 C-37.61004639 2.19839844 -36.40759277 2.02179687 -35.16870117 1.83984375 C-23.45224155 0.2358565 -11.81347836 -0.02463344 0 0 Z M-165.06689453 107.46386719 C-171.59524363 114.61126813 -177.21861124 122.49179734 -182.8125 130.375 C-179.57983025 133.0658148 -176.38472803 135.31384808 -172.69921875 137.3359375 C-171.2145813 138.15735229 -171.2145813 138.15735229 -169.69995117 138.99536133 C-168.64396729 139.57439209 -167.5879834 140.15342285 -166.5 140.75 C-156.37788605 146.34652971 -146.36352162 152.09220539 -136.43041992 158.01904297 C-135.48787354 158.5760791 -134.54532715 159.13311523 -133.57421875 159.70703125 C-132.74881592 160.19921143 -131.92341309 160.6913916 -131.07299805 161.19848633 C-128.96322087 162.29655482 -127.1363341 162.92009773 -124.8125 163.375 C-124.33941406 162.76914063 -123.86632812 162.16328125 -123.37890625 161.5390625 C-115.31525813 151.32196449 -107.1738644 142.3119783 -96.8125 134.375 C-95.94882813 133.70726562 -95.08515625 133.03953125 -94.1953125 132.3515625 C-76.00133854 118.69258502 -56.01077818 109.40433547 -33.8125 104.375 C-32.75603271 104.12943359 -32.75603271 104.12943359 -31.67822266 103.87890625 C6.45555295 95.40667885 48.75158887 102.78006743 81.75 123.5 C87.28484732 127.03895657 92.72190063 130.73126709 98.1875 134.375 C113.3675 119.195 128.5475 104.015 144.1875 88.375 C107.1429437 51.3304437 51.50552317 34.1694981 0.125 34 C-63.50286188 34.17093969 -121.54408265 61.63187299 -165.06689453 107.46386719 Z M-200.8125 161.375 C-219.56431917 203.87595056 -227.33096329 249.31157743 -218.8125 295.375 C-218.64621094 296.27831055 -218.47992188 297.18162109 -218.30859375 298.11230469 C-214.76702278 316.61373379 -208.82674175 334.3385778 -200.8125 351.375 C-196.46690192 350.42908831 -192.90185424 348.36082307 -189.0625 346.1875 C-188.28825684 345.75332764 -187.51401367 345.31915527 -186.71630859 344.87182617 C-176.99981335 339.39617426 -167.38220556 333.74764846 -157.76269531 328.10400391 C-152.78404802 325.18619688 -147.79814825 322.28082341 -142.8125 319.375 C-143.0391333 318.726521 -143.2657666 318.07804199 -143.49926758 317.40991211 C-151.94483276 293.09365958 -151.94483276 293.09365958 -153.8125 280.375 C-153.99425781 279.23675781 -154.17601562 278.09851563 -154.36328125 276.92578125 C-157.82958286 248.13039956 -153.13294764 220.25116573 -142.8125 193.375 C-143.46395996 192.99915771 -144.11541992 192.62331543 -144.78662109 192.23608398 C-145.71039551 191.70313721 -146.63416992 191.17019043 -147.5859375 190.62109375 C-148.6267749 190.02063232 -149.6676123 189.4201709 -150.73999023 188.80151367 C-153.05728612 187.46456802 -155.37451776 186.12751172 -157.69165039 184.7902832 C-163.25809085 181.57807225 -168.82507986 178.36683414 -174.39526367 175.16111755 C-176.19484151 174.12538357 -177.99418463 173.08924301 -179.79345703 172.05297852 C-182.06870533 170.74275819 -184.34440965 169.43332939 -186.62060547 168.12475586 C-187.6520166 167.53057861 -188.68342773 166.93640137 -189.74609375 166.32421875 C-190.65415771 165.80174561 -191.56222168 165.27927246 -192.49780273 164.7409668 C-194.30376201 163.67522034 -196.06771129 162.53819248 -197.8125 161.375 C-198.8025 161.375 -199.7925 161.375 -200.8125 161.375 Z " fill="#FF4B25" transform="translate(255.8125,-0.375)"/>
<path d="M0 0 C2.88328945 3.5617105 5.64867283 7.19206681 8.375 10.875 C28.55158973 37.76614814 57.71294809 53.71335883 90.81640625 58.55859375 C115.17398286 61.44827883 138.81749106 56.40476412 160.59765625 45.55078125 C167.7927997 42.27124974 174.54218327 40.42665292 182.1875 43.125 C189.60010686 48.06673791 193.54164986 56.50417866 198 64 C198.3619043 64.60682617 198.72380859 65.21365234 199.09667969 65.83886719 C207.21157911 79.47275167 215.09018407 93.24662472 223 107 C223.67071533 108.16499023 223.67071533 108.16499023 224.35498047 109.35351562 C233.04873781 124.45986949 233.04873781 124.45986949 237 132 C237.41507812 132.77988281 237.83015625 133.55976563 238.2578125 134.36328125 C240.86892574 139.6494161 242.02579264 144.13198619 241 150 C238.27386029 157.01599255 234.63810908 160.69330016 228 164 C227.21383301 164.41169434 226.42766602 164.82338867 225.61767578 165.24755859 C201.71600362 177.52012086 176.42117205 186.18767216 150 191 C149.16436523 191.16371094 148.32873047 191.32742188 147.46777344 191.49609375 C119.74668188 196.7887992 87.66190963 196.39940744 60 191 C59.10297363 190.83902832 58.20594727 190.67805664 57.28173828 190.51220703 C27.42973143 185.11051415 -2.31774249 174.28940551 -28 158 C-28.69254883 157.56075195 -29.38509766 157.12150391 -30.09863281 156.66894531 C-45.60062319 146.7441773 -59.7637655 135.78563928 -73 123 C-73.62084473 122.40106934 -74.24168945 121.80213867 -74.88134766 121.18505859 C-82.78066978 113.52301273 -90.33879187 105.78610965 -97 97 C-97.43795898 96.4225 -97.87591797 95.845 -98.32714844 95.25 C-111.71242334 77.51381793 -111.71242334 77.51381793 -115 71 C-114.505 70.01 -114.505 70.01 -114 69 C-113.21625 69.66 -112.4325 70.32 -111.625 71 C-107.13444415 73.86896624 -103.16565235 74.12813097 -98 73 C-93.71875371 71.26138448 -89.68461324 69.06428925 -85.63671875 66.84765625 C-82.78347416 65.31129378 -80.25225446 64.39630954 -77 64 C-76.47792969 64.71542969 -75.95585938 65.43085938 -75.41796875 66.16796875 C-61.76866694 84.64592024 -46.63020686 101.41468137 -28 115 C-26.95457031 115.76699219 -25.90914063 116.53398437 -24.83203125 117.32421875 C4.31439658 138.07068229 36.74164243 150.99262589 72 157 C72.71639648 157.12987305 73.43279297 157.25974609 74.17089844 157.39355469 C96.66964339 161.36000009 121.65112886 160.13295469 144 156 C145.35496582 155.75056641 145.35496582 155.75056641 146.73730469 155.49609375 C163.75972346 152.23763713 180.50388137 147.10506882 196.21166992 139.73657227 C198 139 198 139 200 139 C191.31983478 123.02747525 182.5167802 107.1151044 173.3125 91.4375 C172.81991699 90.58099854 172.32733398 89.72449707 171.81982422 88.84204102 C171.35979004 88.06787842 170.89975586 87.29371582 170.42578125 86.49609375 C170.02786377 85.81732178 169.62994629 85.1385498 169.2199707 84.43920898 C168.81738037 83.96427002 168.41479004 83.48933105 168 83 C165.08455103 83 163.59948693 83.39148018 160.921875 84.390625 C132.47841828 94.67081892 100.70432184 98.29504254 71 91 C70.28312012 90.83371094 69.56624023 90.66742188 68.82763672 90.49609375 C35.00244051 82.52506781 1.51324314 62.54016437 -19 34 C-19.7036997 32.68583526 -20.38669556 31.35870522 -21 30 C-20.13117188 29.48050781 -19.26234375 28.96101563 -18.3671875 28.42578125 C-6.91623725 22.29094677 -6.91623725 22.29094677 0 12 C0.24012919 8.87420806 0.24012919 8.87420806 0.125 5.6875 C0.10695313 4.61886719 0.08890625 3.55023438 0.0703125 2.44921875 C0.04710937 1.64097656 0.02390625 0.83273437 0 0 Z " fill="#28CC5D" transform="translate(151,318)"/>
<path d="M0 0 C0.33 0 0.66 0 1 0 C1.12117188 0.80824219 1.24234375 1.61648437 1.3671875 2.44921875 C1.61855469 4.05216797 1.61855469 4.05216797 1.875 5.6875 C2.11863281 7.27111328 2.11863281 7.27111328 2.3671875 8.88671875 C2.97253701 11.86488885 3.57924864 14.31374494 5 17 C6.71534608 18.20343014 6.71534608 18.20343014 9 19 C11.37821437 20.13967548 13.75273898 21.28560831 16.125 22.4375 C16.75792969 22.73720703 17.39085937 23.03691406 18.04296875 23.34570312 C21.33917669 24.9588155 22.91993433 25.8799015 25 29 C24.58789062 30.78320312 24.58789062 30.78320312 23.65625 32.78125 C23.15121948 33.90515137 23.15121948 33.90515137 22.63598633 35.05175781 C22.26111084 35.85967773 21.88623535 36.66759766 21.5 37.5 C4.24984298 76.65848995 -0.78428708 120.90662085 7 163 C7.16628906 163.90331055 7.33257812 164.80662109 7.50390625 165.73730469 C10.76236287 182.75972346 15.89493118 199.50388137 23.26342773 215.21166992 C24 217 24 217 24 219 C39.3839808 210.64598626 54.7096758 202.16645926 69.8125 193.3125 C70.4926416 192.91514648 71.1727832 192.51779297 71.87353516 192.10839844 C75.05429604 190.22926749 78.10421628 188.29766214 81 186 C80.43732422 184.65035156 80.43732422 184.65035156 79.86328125 183.2734375 C76.59183473 175.15122545 74.10854694 167.04711025 72.1875 158.5 C71.9810083 157.58138184 71.7745166 156.66276367 71.56176758 155.71630859 C64.96777826 125.25822606 67.27495938 88.82810053 82 61 C82.78503906 61.39832031 83.57007812 61.79664063 84.37890625 62.20703125 C87.57828966 63.82046264 90.78866941 65.41051269 94 67 C94.67289062 67.35191406 95.34578125 67.70382813 96.0390625 68.06640625 C100.60286625 70.30504932 105.02328971 70.85056503 110 70 C113.40277812 68.20566347 113.40277812 68.20566347 116 66 C116.66 65.67 117.32 65.34 118 65 C116.6797414 69.19854749 115.05677448 73.08227702 113.1875 77.0625 C101.07395162 104.94147532 100.74419879 137.5170833 111.18310547 165.95263672 C113.00256929 170.5127155 115.12690591 174.9402878 117.32104492 179.33056641 C120.36952716 185.46004802 121.73748384 191.06218908 121 198 C117.57360487 207.70811954 107.35408398 212.03117407 99 217 C98.39317383 217.3619043 97.78634766 217.72380859 97.16113281 218.09667969 C83.52724833 226.21157911 69.75337528 234.09018407 56 242 C54.83500977 242.67071533 54.83500977 242.67071533 53.64648438 243.35498047 C46.1521547 247.66799234 38.65725737 251.9811289 31 256 C30.23171875 256.41507812 29.4634375 256.83015625 28.671875 257.2578125 C23.10249638 260.04250181 18.18433986 261.12500147 12 260 C4.66802201 256.61485554 0.97738043 251.8036226 -2.4375 244.6875 C-2.89286133 243.77524658 -3.34822266 242.86299316 -3.81738281 241.9230957 C-16.03139689 216.92741555 -24.8363023 190.53197357 -29 163 C-29.17660156 161.87754883 -29.35320313 160.75509766 -29.53515625 159.59863281 C-31.1920586 147.98552257 -31.39873513 136.46820055 -31.375 124.75 C-31.37445618 123.73798523 -31.37391235 122.72597046 -31.37335205 121.68328857 C-31.3326051 105.14882605 -30.40886907 89.22935136 -27 73 C-26.79101074 71.98470215 -26.58202148 70.9694043 -26.36669922 69.92333984 C-21.34339758 46.28183856 -13.52323915 20.28485873 0 0 Z " fill="#FED500" transform="translate(31,132)"/>
</svg>
